<svg width="71" height="160" viewBox="0 0 71 160" fill="none" xmlns="http://www.w3.org/2000/svg">
<g clip-path="url(#clip0)">
<path opacity="0.1" fill-rule="evenodd" clip-rule="evenodd" d="M63.7079 103.402C58.9888 104.115 54.2698 104.615 49.4078 104.9C43.5979 105.256 37.7715 105.256 31.9617 104.9C27.4571 104.65 22.7381 104.151 17.8761 103.402C16.862 91.1262 16.2744 78.8238 16.1133 66.5173C16.0371 61.6434 16.0402 56.7687 16.1227 51.8949C16.1751 48.2466 16.2649 44.5987 16.3923 40.9518L10.7252 42.2523L10.5107 41.967C10.349 41.2395 10.4791 40.4778 10.8733 39.8447C11.2675 39.2117 11.8944 38.7577 12.6199 38.5797L15.2297 38.0092C15.6031 37.9025 15.9943 37.8728 16.3796 37.9219C16.4219 37.9273 16.464 37.9336 16.506 37.9409C16.6981 33.2072 16.9534 28.4755 17.2719 23.7469H16.3386V20.4309H17.4827V20.7442C17.6058 19.0585 17.7369 17.3733 17.8761 15.6886C18.8579 15.2667 19.8495 14.8687 20.85 14.4947C21.0327 14.3786 21.2368 14.2996 21.4505 14.2624L21.721 14.176C23.6511 13.4851 25.6129 12.8832 27.6001 12.3726C36.3958 10.1267 45.6171 10.1267 54.4128 12.3726C57.735 13.2262 60.9861 14.3349 64.1369 15.6886C65.073 27.739 65.5984 39.8127 65.7131 51.8888C65.7605 55.9651 65.7525 60.0419 65.6889 64.1179C65.5124 77.2271 64.8521 90.3308 63.7079 103.402Z" fill="black"/>
<path d="M52.9815 92.7055C48.2624 93.4186 43.5434 93.9178 38.6814 94.203C32.8715 94.5596 27.0451 94.5596 21.2353 94.203C16.7307 93.9535 12.0117 93.4543 7.14965 92.7055C4.73853 63.517 4.73853 34.1802 7.14965 4.99176C10.2541 3.64491 13.4571 2.53636 16.7307 1.67576C25.5264 -0.570142 34.7477 -0.570142 43.5434 1.67576C46.8656 2.52939 50.1167 3.63803 53.2675 4.99176C55.5834 34.188 55.4878 63.5249 52.9815 92.7055Z" fill="#619C26"/>
<path d="M52.982 89.14C48.263 89.8175 43.5439 90.281 38.6819 90.5306C32.871 90.8516 27.0467 90.8516 21.2358 90.5306C16.7313 90.1384 12.0122 89.6749 7.1502 89.14C4.72858 62.2977 4.72858 35.2928 7.1502 8.45051C10.3124 7.20301 13.5626 6.19001 16.8743 5.41975C25.6915 3.35154 34.8697 3.35154 43.687 5.41975C46.9987 6.19001 50.2488 7.20301 53.411 8.45051C55.69 35.3056 55.5464 62.3106 52.982 89.14Z" fill="#73B82E"/>
<path d="M50.3008 83.6845C36.9442 85.8238 23.331 85.8238 9.97448 83.6845C7.76397 58.6822 7.68025 33.538 9.72423 8.52164C16.1159 5.54605 23.0839 4.00397 30.1376 4.00397C37.1913 4.00397 44.1593 5.54605 50.551 8.52164C52.6128 33.5373 52.5291 58.683 50.3008 83.6845Z" fill="#83D134"/>
<path d="M50.3007 84.0409C36.9089 85.6812 23.3662 85.6812 9.97444 84.0409C7.76409 64.9855 7.68016 45.7443 9.72419 26.6704C22.9422 22.0698 37.3329 22.0698 50.551 26.6704C52.6128 45.7434 52.5289 64.9865 50.3007 84.0409Z" fill="#435266"/>
<path d="M46.1884 75.448C35.4853 76.415 24.7164 76.415 14.0132 75.448C12.2619 64.0383 12.1897 52.4348 13.7987 41.0043C24.4682 38.2583 35.6619 38.2583 46.3314 41.0043C47.9641 52.4313 47.916 64.0349 46.1884 75.448Z" fill="#73B82E"/>
<path d="M13.8716 41.0042L15.1586 40.719L11.5836 26.1L9.83179 26.6705C9.83179 27.5976 9.65304 28.5246 9.58154 29.4517L13.9431 41.4678C13.9431 41.4678 13.8716 41.1469 13.8716 41.0042Z" fill="#73B82E"/>
<path d="M12.727 57.5488H8.29395C8.29395 58.7255 8.29395 59.8665 8.29395 61.1144L12.727 59.9734C12.727 59.1177 12.727 58.3333 12.727 57.5488Z" fill="#73B82E"/>
<path d="M46.4767 41.0042C46.4767 41.0042 46.4767 41.3251 46.4767 41.4678L50.874 29.4517C50.874 28.5246 50.6953 27.5976 50.588 26.6705L48.8363 26.1L45.2612 40.719L46.4767 41.0042Z" fill="#73B82E"/>
<path d="M46.1903 75.4478H45.082L47.1555 84.3262L50.3016 83.9696C50.3016 82.7573 50.5518 81.545 50.6948 80.404L46.4763 73.665C46.4763 74.2712 46.4763 74.8773 46.1903 75.4478Z" fill="#73B82E"/>
<path d="M14.0861 75.4478C14.0861 74.8417 14.0861 74.2712 13.8358 73.665L9.58154 80.3684C9.58154 81.6163 9.83179 82.8286 9.9748 83.934L13.1208 84.2905L15.1943 75.4122L14.0861 75.4478Z" fill="#73B82E"/>
<path d="M47.5479 57.5488C47.5479 58.3332 47.5479 59.1176 47.5479 59.9021L51.9809 61.0431C51.9809 59.8664 51.9809 58.7254 51.9809 57.4775L47.5479 57.5488Z" fill="#73B82E"/>
</g>
<path fill-rule="evenodd" clip-rule="evenodd" d="M23.0073 100.556C23.0223 100.417 23.03 100.276 23.03 100.133C23.03 97.9856 21.2889 96.2444 19.1411 96.2444C16.9933 96.2444 15.2522 97.9856 15.2522 100.133C15.2522 100.133 15.2522 100.133 15.2522 100.133H15.252L15.2522 100.137C15.2523 100.276 15.2597 100.413 15.2741 100.549L18.4338 159.881H19.848L23.0073 100.556Z" fill="url(#paint0_linear)"/>
<path fill-rule="evenodd" clip-rule="evenodd" d="M37.3408 100.133C37.3408 100.133 37.3408 100.133 37.3408 100.133C37.3408 97.9856 39.0819 96.2444 41.2297 96.2444C43.3775 96.2444 45.1187 97.9856 45.1187 100.133C45.1187 100.276 45.111 100.416 45.0962 100.554L41.9367 159.881H40.5226L37.3629 100.551C37.3484 100.414 37.3409 100.276 37.3408 100.135L37.3407 100.133H37.3408Z" fill="url(#paint1_linear)"/>
<defs>
<linearGradient id="paint0_linear" x1="19.141" y1="96.2444" x2="19.141" y2="159.881" gradientUnits="userSpaceOnUse">
<stop stop-color="white"/>
<stop offset="0.739583" stop-color="white" stop-opacity="0"/>
</linearGradient>
<linearGradient id="paint1_linear" x1="41.2297" y1="96.2444" x2="41.2297" y2="159.881" gradientUnits="userSpaceOnUse">
<stop stop-color="white"/>
<stop offset="0.739583" stop-color="white" stop-opacity="0"/>
</linearGradient>
<clipPath id="clip0">
<path d="M0 0H71V105.185H0V0Z" fill="white"/>
</clipPath>
</defs>
</svg>
