<svg width="106" height="161" viewBox="0 0 106 161" fill="none" xmlns="http://www.w3.org/2000/svg">
<g clip-path="url(#clip0)">
<path opacity="0.1" fill-rule="evenodd" clip-rule="evenodd" d="M97.9284 27.8409V31.3684L97.929 31.3774V145.907L97.9284 145.921V149.691C97.8708 151.974 97.0118 154.164 95.5001 155.884C93.9884 157.604 91.9191 158.744 89.6503 159.108C88.6751 159.23 87.7015 159.346 86.7288 159.456C86.6684 159.466 86.6074 159.473 86.5461 159.478L86.4712 159.485C82.6181 159.914 78.7795 160.248 74.9155 160.507L74.915 160.507V160.671C64.4538 161.329 53.9612 161.329 43.4999 160.671V160.507C38.6561 160.386 33.8909 159.757 29.3197 159.154L28.9725 159.108C26.7003 158.752 24.6264 157.614 23.1133 155.892C21.6001 154.171 20.744 151.976 20.6945 149.691V147.47C20.5821 146.959 20.5126 146.436 20.4882 145.907V56.8796L12.4167 58.7248V58.3958C12.2192 57.5898 12.3355 56.7394 12.7423 56.0149C13.1491 55.2905 13.8163 54.7455 14.6104 54.489L17.6318 53.831C18.0641 53.708 18.5171 53.6738 18.9631 53.7304C19.4092 53.787 19.839 53.9332 20.2262 54.1603C20.3164 54.2131 20.4038 54.2701 20.4882 54.3309V31.3774C20.5248 30.875 20.594 30.3776 20.6945 29.8878V27.8409C20.8255 25.4021 21.6821 23.0569 23.1557 21.1022C24.6294 19.1475 26.6538 17.6714 28.9725 16.8608C29.5316 16.6907 30.0918 16.5255 30.6531 16.365C30.9325 16.2107 31.2442 16.0851 31.5806 15.9972C31.9345 15.8542 32.3118 15.7903 32.6869 15.8055C51.4839 10.8376 71.3335 11.1894 89.9815 16.8608C92.2382 17.7234 94.1924 19.222 95.6041 21.1725C97.0158 23.123 97.8236 25.4406 97.9284 27.8409ZM19.1634 34.8322H20.4879V40.3428H19.1634V34.8322ZM20.4879 140.315H19.1634V145.825H20.4879V140.315Z" fill="black"/>
<path d="M85.5115 15.5038V137.354C85.4539 139.636 84.595 141.827 83.0833 143.547C81.5715 145.267 79.5022 146.407 77.2335 146.771C72.3081 147.388 67.424 147.84 62.4986 148.169C52.0374 148.827 41.5447 148.827 31.0835 148.169C26.1167 148.046 21.2327 147.388 16.5556 146.771C14.2834 146.415 12.2096 145.277 10.6964 143.555C9.18326 141.834 8.32711 139.639 8.27759 137.354V15.5038C8.40863 13.065 9.26522 10.7198 10.7389 8.76509C12.2125 6.81043 14.2369 5.3343 16.5556 4.5237C36.4367 -1.52271 57.6835 -1.52271 77.5646 4.5237C79.8214 5.38633 81.7755 6.88489 83.1872 8.83541C84.599 10.7859 85.4068 13.1036 85.5115 15.5038Z" fill="#F5E0C4"/>
<path d="M85.5119 19.0403V133.57C85.4016 135.777 84.5107 137.874 82.9962 139.491C81.4817 141.109 79.4409 142.143 77.2339 142.412C72.3085 142.988 67.4244 143.44 62.499 143.728C52.0365 144.345 41.5464 144.345 31.0839 143.728C26.1171 143.44 21.2331 142.988 16.3491 142.412C14.1388 142.151 12.0934 141.119 10.5774 139.5C9.06139 137.881 8.17319 135.779 8.07104 133.57V19.0403C8.24235 16.6911 9.12456 14.4482 10.6019 12.6061C12.0792 10.764 14.0826 9.4087 16.3491 8.7182C36.2844 3.04364 57.4227 3.04364 77.358 8.7182C79.5955 9.43913 81.5661 10.806 83.0184 12.6445C84.4707 14.4829 85.3387 16.7096 85.5119 19.0403Z" fill="#F7F4ED"/>
<path d="M46.7659 143.921C38.0375 143.921 29.318 143.384 20.6604 142.315C17.5542 141.767 14.7537 140.167 12.7638 137.804C10.7739 135.441 9.72565 132.471 9.80797 129.429V22.3842C9.84626 19.3531 10.8222 16.4019 12.6108 13.9083C14.3995 11.4146 16.9195 9.49189 19.8486 8.38609C28.5117 5.71953 37.5436 4.33145 46.6377 4.26898C55.7315 4.2685 64.7746 5.57283 73.4696 8.13906C76.5327 9.21112 79.1797 11.1646 81.0521 13.7347C82.9245 16.3049 83.9318 19.3675 83.9375 22.5078V129.552C84.0215 132.589 82.9792 135.554 80.9979 137.916C79.0166 140.278 76.2261 141.882 73.1278 142.439C64.3823 143.474 55.577 143.969 46.7659 143.921Z" fill="#FBFBFB"/>
<path d="M46.9142 142.705C38.4451 142.711 29.9823 142.25 21.5663 141.321C18.7356 141.037 16.1067 139.753 14.1685 137.71C12.2302 135.667 11.1145 133.004 11.0288 130.214V38.1052C11.1637 35.3355 12.175 32.6759 13.9222 30.4958C15.6694 28.3158 18.0657 26.7236 20.778 25.9406C37.8295 21.4391 55.7915 21.4391 72.843 25.9406C75.585 26.7045 78.0131 28.2935 79.7847 30.4834C81.5563 32.6734 82.5818 35.3536 82.7167 38.1459V130.174C82.6322 132.957 81.5223 135.615 79.5926 137.657C77.6628 139.7 75.0439 140.987 72.2207 141.281C63.8189 142.218 55.3702 142.693 46.9142 142.705Z" fill="#F7F4ED"/>
<path d="M71.687 136.449C55.172 138.086 38.534 138.086 22.0189 136.449C20.3323 136.375 18.7261 135.712 17.4841 134.575C16.242 133.439 15.444 131.904 15.231 130.239V44.3728C15.431 42.6217 16.1706 40.9747 17.3486 39.6571C18.5266 38.3395 20.0854 37.4156 21.812 37.0117C38.2136 33.0637 55.3268 33.0637 71.7284 37.0117C73.5105 37.3665 75.1358 38.2676 76.3757 39.588C77.6156 40.9084 78.4077 42.5818 78.6406 44.3728V130.239C78.4227 131.931 77.6008 133.488 76.3246 134.628C75.0484 135.767 73.4026 136.414 71.687 136.449Z" fill="#FBFBFB"/>
<path d="M18.708 38.5744L15.314 28.9926C13.8575 30.3188 12.7128 31.9475 11.9614 33.7629L16.5557 40.754C17.1502 39.9169 17.877 39.1809 18.708 38.5744Z" fill="#FBFBFB"/>
<path d="M78.6414 81.3431V84.6741L82.7804 85.9078V81.3431H78.6414Z" fill="#FBFBFB"/>
<path d="M15.107 81.3431H10.968V85.9078L15.107 84.6741V81.3431Z" fill="#FBFBFB"/>
<path d="M77.1103 40.7537L81.6218 33.7215C80.8712 31.8477 79.7121 30.1624 78.2278 28.7867L74.8752 38.3685C75.7427 39.041 76.4971 39.8461 77.1103 40.7537Z" fill="#FBFBFB"/>
<path d="M74.0059 135.709L76.5307 140.973C77.9115 140.22 79.1253 139.198 80.0996 137.969C81.0739 136.74 81.7887 135.327 82.2011 133.817L78.269 131.35C77.94 132.351 77.3847 133.265 76.6458 134.02C75.9069 134.776 75.0039 135.353 74.0059 135.709Z" fill="#FBFBFB"/>
<path d="M15.3143 131.596L11.1753 134.064C11.6202 135.561 12.3669 136.953 13.3702 138.155C14.3735 139.357 15.6123 140.344 17.0113 141.055L19.5361 135.709C18.5729 135.371 17.6958 134.828 16.9664 134.117C16.237 133.407 15.6731 132.546 15.3143 131.596Z" fill="#FBFBFB"/>
<path d="M56.3321 50.7878H37.2099C32.8896 50.7878 29.3872 54.2677 29.3872 58.5603V67.5664C29.3872 71.859 32.8896 75.3388 37.2099 75.3388H56.3321C60.6525 75.3388 64.1549 71.859 64.1549 67.5664V58.5603C64.1549 54.2677 60.6525 50.7878 56.3321 50.7878Z" fill="#F7F4ED"/>
</g>
<defs>
<clipPath id="clip0">
<path d="M0 0H106V161H0V0Z" fill="white"/>
</clipPath>
</defs>
</svg>
