<svg width="100" height="255" viewBox="0 0 100 255" fill="none" xmlns="http://www.w3.org/2000/svg">
<g clip-path="url(#clip0)">
<path opacity="0.1" fill-rule="evenodd" clip-rule="evenodd" d="M92.036 145.339V141.568L92.0363 141.562V27.2203L92.036 27.216V23.6897C91.9365 21.2981 91.1494 18.9877 89.7711 17.0409C88.3928 15.0941 86.4828 13.5952 84.2749 12.7277C65.5837 6.94688 45.6629 6.70203 26.8676 11.9931C25.0052 12.422 23.5337 12.8307 23.162 13.0561C22.9917 13.1516 22.7764 13.3293 22.537 13.5623C21.0308 14.4022 19.7106 15.5586 18.6701 16.9621C17.2234 18.9135 16.3824 21.2549 16.2538 23.6897V25.5385C16.1327 26.0901 16.051 26.6521 16.0103 27.2203V30.6694H14.7499V36.1709H16.0103V50.1064C15.9402 50.0568 15.8682 50.0098 15.7942 49.9657C15.414 49.7391 14.9921 49.593 14.5542 49.5365C14.1163 49.48 13.6716 49.5142 13.2472 49.6371L10.281 50.294C9.50144 50.55 8.84641 51.0941 8.44706 51.8174C8.04772 52.5406 7.93353 53.3896 8.12737 54.1943V54.5227L16.0103 52.6901V135.978H14.7499V141.48H16.0103V141.562C16.0371 142.152 16.1193 142.735 16.2538 143.303V145.339C16.3024 147.62 17.1429 149.812 18.6284 151.53C20.1139 153.249 22.1499 154.385 24.3806 154.741L24.725 154.787L24.7259 154.787L24.7262 154.787C29.2126 155.389 33.8882 156.017 38.6024 156.137L38.644 156.14V156.301C42.3111 156.536 45.9822 156.687 49.6544 156.754L50.9556 160.817C51.0127 161.018 51.1288 161.196 51.2885 161.328C51.3048 161.341 51.3215 161.354 51.3385 161.367C51.3478 161.373 51.3571 161.38 51.3666 161.386C51.3631 161.443 51.3613 161.499 51.3613 161.556C51.3613 161.61 51.3629 161.663 51.3659 161.716C51.3372 161.735 51.3094 161.755 51.2826 161.777C51.1218 161.91 51.0073 162.092 50.9556 162.295L49.6974 166.196H20.4401V254.179H87.6892V166.196H58.3901L57.1319 162.295C57.0803 162.092 56.9657 161.91 56.8049 161.777L56.7868 161.763C56.7763 161.755 56.7656 161.747 56.7548 161.739C56.7435 161.731 56.7321 161.723 56.7205 161.715C56.7235 161.663 56.725 161.61 56.725 161.556C56.725 161.5 56.7233 161.443 56.7199 161.387C56.7471 161.369 56.7735 161.349 56.799 161.328C56.9587 161.196 57.0749 161.018 57.1319 160.817L58.4329 156.755C62.119 156.688 65.804 156.537 69.4851 156.301V156.134C74.3064 155.806 79.0876 155.355 83.9092 154.741C86.1399 154.385 88.1758 153.249 89.6613 151.53C91.1468 149.812 91.9874 147.62 92.036 145.339ZM19.1385 240.589H20.4388V246.091H19.1385V240.589ZM20.4388 174.448H19.1385V179.949H20.4388V174.448ZM39.5776 254.179H24.2992V255H39.5776V254.179ZM68.5498 254.179H83.8282V255H68.5498V254.179Z" fill="black"/>
<path d="M43.7219 153.345H48.1103C48.3178 153.356 48.5164 153.433 48.6772 153.566C48.838 153.699 48.9526 153.88 49.0043 154.084L50.7922 159.626H41.04L42.8279 154.084C42.8796 153.88 42.9942 153.699 43.155 153.566C43.3158 153.433 43.5144 153.356 43.7219 153.345Z" fill="#F5E0C4"/>
<path d="M43.7219 153.345H48.1103C48.316 153.328 48.5117 153.249 48.6714 153.117C48.8311 152.984 48.9472 152.806 49.0043 152.606L50.7922 147.022H41.04L42.8279 152.606C42.885 152.806 43.0011 152.984 43.1608 153.117C43.3205 153.249 43.5162 153.328 43.7219 153.345Z" fill="#F5E0C4"/>
<path d="M45.9155 156.055C47.3966 156.055 48.5973 154.842 48.5973 153.345C48.5973 151.849 47.3966 150.635 45.9155 150.635C44.4343 150.635 43.2336 151.849 43.2336 153.345C43.2336 154.842 44.4343 156.055 45.9155 156.055Z" fill="#F7F4ED"/>
<path d="M44.6965 153.345C44.6965 152.975 44.8421 152.62 45.1012 152.358C45.3603 152.096 45.7117 151.949 46.0781 151.949C46.4445 151.949 46.7959 152.096 47.055 152.358C47.3141 152.62 47.4596 152.975 47.4596 153.345C47.4596 153.715 47.3141 154.07 47.055 154.332C46.7959 154.594 46.4445 154.741 46.0781 154.741C45.7117 154.741 45.3603 154.594 45.1012 154.332C44.8421 154.07 44.6965 153.715 44.6965 153.345Z" fill="#F5E0C4"/>
<path d="M83.9082 15.4784V137.128C83.8596 139.409 83.019 141.6 81.5335 143.319C80.048 145.038 78.0121 146.174 75.7814 146.53C70.946 147.146 66.1512 147.597 61.3157 147.926C51.0456 148.583 40.7447 148.583 30.4746 147.926C25.6392 147.802 20.8444 147.146 16.2528 146.53C14.0221 146.174 11.9861 145.038 10.5006 143.319C9.01511 141.6 8.1746 139.409 8.12598 137.128V15.4784C8.25462 13.0436 9.09557 10.7022 10.5423 8.75077C11.989 6.79932 13.9764 5.32562 16.2528 4.51635C35.7706 -1.5201 56.6293 -1.5201 76.1471 4.51635C78.355 5.38394 80.265 6.88277 81.6433 8.82958C83.0216 10.7764 83.8087 13.0868 83.9082 15.4784Z" fill="#F5E0C4"/>
<path d="M83.9086 19.009V133.35C83.8083 135.556 82.9363 137.654 81.448 139.271C79.9597 140.887 77.9517 141.917 75.7818 142.178C70.9464 142.752 66.1516 143.204 61.3161 143.491C51.0448 144.107 40.7464 144.107 30.475 143.491C25.5989 143.204 20.8041 142.752 16.0093 142.178C13.8394 141.917 11.8314 140.887 10.3431 139.271C8.85482 137.654 7.98285 135.556 7.88257 133.35V19.009C8.05074 16.6636 8.91684 14.4244 10.3672 12.5853C11.8175 10.7463 13.7843 9.39324 16.0093 8.70387C35.5805 3.03865 56.3326 3.03865 75.9037 8.70387C78.1032 9.41876 80.0407 10.7821 81.4672 12.6185C82.8937 14.4549 83.7439 16.6804 83.9086 19.009Z" fill="#F7F4ED"/>
<path d="M45.9165 143.697C37.6155 143.697 29.3229 143.162 21.0892 142.096C18.1351 141.549 15.4718 139.953 13.5793 137.597C11.6869 135.24 10.6899 132.279 10.7682 129.245V22.4991C10.8046 19.4764 11.7327 16.5334 13.4338 14.0467C15.1349 11.56 17.5315 9.64266 20.3172 8.53994C28.5561 5.88082 37.1458 4.49662 45.7946 4.43433C54.4431 4.43385 63.0434 5.73454 71.3127 8.29361C74.2257 9.36268 76.7432 11.3107 78.5239 13.8737C80.3046 16.4366 81.2626 19.4907 81.268 22.6222V129.368C81.3479 132.396 80.3567 135.353 78.4724 137.708C76.588 140.064 73.9342 141.663 70.9876 142.219C62.6703 143.251 54.2962 143.744 45.9165 143.697Z" fill="#FBFBFB"/>
<path d="M45.8215 143.893C37.993 143.9 30.1704 143.433 22.391 142.495C19.7745 142.207 17.3445 140.91 15.5528 138.845C13.7612 136.78 12.7299 134.088 12.6506 131.269V38.1717C12.7753 35.3724 13.7101 32.6842 15.3252 30.4808C16.9402 28.2774 19.1552 26.6681 21.6624 25.8767C37.424 21.3269 54.0273 21.3269 69.7889 25.8767C72.3235 26.6488 74.5679 28.2549 76.2055 30.4683C77.8431 32.6817 78.7911 35.3907 78.9157 38.2129V131.228C78.8376 134.04 77.8117 136.728 76.0279 138.792C74.2441 140.856 71.8233 142.157 69.2137 142.454C61.4474 143.401 53.6378 143.882 45.8215 143.893Z" fill="#F7F4ED"/>
<path d="M70.3768 136.225C54.1634 137.859 37.8294 137.859 21.6161 136.225C19.9602 136.151 18.3834 135.488 17.1641 134.354C15.9447 133.22 15.1613 131.686 14.9521 130.025V44.2998C15.1486 42.5516 15.8747 40.9073 17.0311 39.5919C18.1876 38.2764 19.7179 37.354 21.4129 36.9507C37.5149 33.0093 54.3155 33.0093 70.4174 36.9507C72.1669 37.3051 73.7626 38.2046 74.9798 39.5229C76.197 40.8411 76.9746 42.5118 77.2033 44.2998V130.025C76.9894 131.714 76.1825 133.268 74.9296 134.406C73.6767 135.544 72.061 136.189 70.3768 136.225Z" fill="#FBFBFB"/>
<path d="M61.3575 143.984V148.09C51.0874 148.747 40.7865 148.747 30.5164 148.09V143.984H61.3575Z" fill="#F7F7F7"/>
<mask id="mask0" mask-type="alpha" maskUnits="userSpaceOnUse" x="12" y="22" width="67" height="122">
<path d="M45.8215 143.893C37.993 143.9 30.1704 143.433 22.391 142.495C19.7745 142.207 17.3445 140.91 15.5528 138.845C13.7612 136.78 12.7299 134.088 12.6506 131.269V38.1717C12.7753 35.3724 13.7101 32.6842 15.3252 30.4808C16.9402 28.2774 19.1552 26.6681 21.6624 25.8767C37.424 21.3269 54.0273 21.3269 69.7889 25.8767C72.3235 26.6488 74.5679 28.2549 76.2055 30.4683C77.8431 32.6817 78.7911 35.3907 78.9157 38.2129V131.228C78.8376 134.04 77.8117 136.728 76.0279 138.792C74.2441 140.856 71.8233 142.157 69.2137 142.454C61.4474 143.401 53.6378 143.882 45.8215 143.893Z" fill="#F7F4ED"/>
</mask>
<g mask="url(#mask0)">
<path d="M18.3667 38.511L15.0348 28.9449C13.6048 30.269 12.4811 31.895 11.7434 33.7075L16.2538 40.687C16.8374 39.8513 17.5509 39.1165 18.3667 38.511Z" fill="#FBFBFB"/>
<path d="M77.2039 81.2092V84.5348L81.2672 85.7665V81.2092H77.2039Z" fill="#FBFBFB"/>
<path d="M14.8307 81.2092H10.7673V85.7665L14.8307 84.5348V81.2092Z" fill="#FBFBFB"/>
<path d="M75.7008 40.6867L80.1299 33.6661C79.393 31.7954 78.2551 30.1128 76.7979 28.7394L73.5066 38.3055C74.3582 38.9768 75.0988 39.7806 75.7008 40.6867Z" fill="#FBFBFB"/>
<path d="M72.6523 135.486L75.131 140.741C76.4866 139.989 77.6783 138.97 78.6348 137.742C79.5913 136.515 80.2929 135.105 80.6979 133.597L76.8376 131.134C76.5146 132.134 75.9695 133.045 75.2441 133.8C74.5187 134.554 73.6322 135.131 72.6523 135.486Z" fill="#FBFBFB"/>
<path d="M15.0348 131.38L10.9714 133.843C11.4082 135.338 12.1413 136.728 13.1262 137.928C14.1112 139.128 15.3274 140.113 16.7008 140.823L19.1795 135.485C18.2339 135.148 17.3728 134.606 16.6567 133.897C15.9407 133.188 15.3871 132.328 15.0348 131.38Z" fill="#FBFBFB"/>
</g>
<path d="M63.9034 57.0714H28.2651C24.2992 57.0714 21.0842 60.3492 21.0842 64.3926V107.429C21.0842 111.472 24.2992 114.75 28.2651 114.75H63.9034C67.8693 114.75 71.0842 111.472 71.0842 107.429V64.3926C71.0842 60.3492 67.8693 57.0714 63.9034 57.0714Z" fill="#F5E0C4"/>
<path d="M64.973 59.08H26.899C24.7671 59.08 23.0388 60.8262 23.0388 62.9803V108.553C23.0388 110.707 24.7671 112.453 26.899 112.453H64.973C67.1049 112.453 68.8332 110.707 68.8332 108.553V62.9803C68.8332 60.8262 67.1049 59.08 64.973 59.08Z" fill="#FBFBFB"/>
<path d="M66.2738 59.3674C65.862 59.1902 65.4209 59.0927 64.9735 59.08H26.8996C25.8562 59.0786 24.8523 59.4829 24.0958 60.209C23.3394 60.9351 22.8884 61.9274 22.8362 62.9803V103.051L66.2738 59.3674Z" fill="#F7F4ED"/>
<path d="M27.3049 147.228C27.9957 147.228 29.3366 143.984 27.7925 143.984C21.86 143.984 12.3516 141.562 14.5459 144.682C15.1147 145.462 19.2188 147.433 27.3049 147.228Z" fill="#F7F7F7"/>
<path d="M65.0138 147.228C64.323 147.228 62.9821 143.984 64.5262 143.984C70.4587 143.984 79.9264 141.562 77.7728 144.682C77.2039 145.462 72.8968 147.433 65.0138 147.228Z" fill="#F7F7F7"/>
<path d="M79.5616 157.984H12.3125V245.968H79.5616V157.984Z" fill="#F5F5F5"/>
<path d="M75.7003 161.844H16.1716V242.068H75.7003V161.844Z" fill="#FBFBFB"/>
<path d="M74.5634 162.295H66.9648V209.592H74.5634V162.295Z" fill="#F5E0C4"/>
<path d="M71.6774 167.468H69.7676V174.571H71.6774V167.468Z" fill="#F7F4ED"/>
<path d="M74.522 211.563H49.4509V225.399H74.522V211.563Z" fill="#F7F4ED"/>
<path d="M74.522 227.369H49.4509V241.205H74.522V227.369Z" fill="#F5E0C4"/>
<path d="M66.4762 217.064H57.4961V219.897H66.4762V217.064Z" fill="#F5E0C4"/>
<path d="M58.7975 233.035H52.418V235.539H58.7975V233.035Z" fill="#F7F4ED"/>
<path d="M71.7186 233.035H65.3391V235.539H71.7186V233.035Z" fill="#F7F4ED"/>
<path d="M63.5514 162.706H36.6924V209.551H63.5514V162.706Z" fill="#F7F4ED"/>
<path d="M61.1123 165.908H58.7961V176.172H61.1123V165.908Z" fill="#F5E0C4"/>
<path d="M61.1123 195.715H58.7961V205.979H61.1123V195.715Z" fill="#F5E0C4"/>
<path d="M47.9886 211.563H36.6924V241.205H47.9886V211.563Z" fill="#F7F4ED"/>
<path d="M42.3399 221.293C43.3722 221.293 44.209 220.043 44.209 218.501C44.209 216.959 43.3722 215.709 42.3399 215.709C41.3076 215.709 40.4707 216.959 40.4707 218.501C40.4707 220.043 41.3076 221.293 42.3399 221.293Z" fill="#F5E0C4"/>
<path d="M35.0261 162.706H16.8628V172.395H35.0261V162.706Z" fill="#F5E0C4"/>
<path d="M25.9248 168.782C24.0962 168.782 22.5928 168.248 22.5928 167.592C22.5928 166.935 24.0962 166.36 25.9248 166.36C27.7533 166.36 29.2567 166.894 29.2567 167.592C29.2567 168.289 27.7939 168.782 25.9248 168.782Z" fill="#F7F4ED"/>
<path d="M35.0261 174.571H16.8628V190.419H35.0261V174.571Z" fill="#F7F4ED"/>
<path d="M24.0953 181.345H19.2192V183.686H24.0953V181.345Z" fill="#F5E0C4"/>
<path d="M32.7103 181.345H27.8342V183.686H32.7103V181.345Z" fill="#F5E0C4"/>
<path d="M35.0261 192.677H16.8628V241.205H35.0261V192.677Z" fill="#F5E0C4"/>
<path d="M25.9237 209.387C23.567 209.387 21.8604 206.513 21.8604 202.982C21.8604 199.451 23.7701 196.577 25.9237 196.577C28.0773 196.577 29.9871 199.451 29.9871 202.982C29.9871 206.513 28.443 209.387 25.9237 209.387Z" fill="#F7F4ED"/>
<path d="M25.9237 236.238C23.567 236.238 21.8604 233.364 21.8604 229.833C21.8604 226.302 23.7701 223.469 25.9237 223.469C28.0773 223.469 29.9871 226.302 29.9871 229.833C29.9871 233.364 28.443 236.238 25.9237 236.238Z" fill="#F7F4ED"/>
<path d="M30.1911 215.381H21.658V218.501H30.1911V215.381Z" fill="#F7F4ED"/>
<path d="M31.45 245.968H16.1716V246.789H31.45V245.968Z" fill="#FBFBFB"/>
<path d="M75.7005 245.968H60.4221V246.789H75.7005V245.968Z" fill="#FBFBFB"/>
</g>
<defs>
<clipPath id="clip0">
<path d="M0 0H100V255H0V0Z" fill="white"/>
</clipPath>
</defs>
</svg>
