<svg width="125" height="219" viewBox="0 0 125 219" fill="none" xmlns="http://www.w3.org/2000/svg">
<path opacity="0.1" fill-rule="evenodd" clip-rule="evenodd" d="M106.81 73.586H105.233V78.9005H106.021C106.671 78.8784 107.319 78.9861 107.925 79.2171C108.532 79.4481 109.085 79.7976 109.55 80.2445C110.016 80.6914 110.385 81.2266 110.635 81.8176C110.885 82.4087 111.01 83.0434 111.004 83.6836V210.987C110.965 212.303 110.463 213.564 109.585 214.555C108.706 215.547 107.505 216.207 106.187 216.425C102.034 217.038 97.6323 217.487 93.3549 217.896C90.3649 218.182 87.4164 218.387 84.4263 218.55C77.325 218.959 70.2237 219.082 63.0808 218.918C60.1323 218.918 57.1838 218.918 54.1938 218.632C46.4972 218.223 38.8422 217.487 31.2287 216.425C29.9138 216.2 28.7173 215.537 27.8401 214.547C26.963 213.557 26.4585 212.3 26.4114 210.987V83.6836C26.4114 82.4151 26.9233 81.1985 27.8345 80.3015C28.7457 79.4045 29.9815 78.9005 31.2702 78.9005H32.143V73.586H30.6057C29.9962 73.5753 29.4153 73.3293 28.9881 72.9012C28.5609 72.473 28.3216 71.8968 28.3217 71.2966V18.1512C28.3352 17.5307 28.5723 16.9351 28.9907 16.4708C29.4091 16.0065 29.9815 15.7037 30.6057 15.6166C55.9398 13.0412 81.476 13.0412 106.81 15.6166C107.442 15.6948 108.024 15.9937 108.451 16.4588C108.878 16.924 109.121 17.5246 109.136 18.1512V71.2966C109.125 71.9005 108.877 72.4768 108.443 72.9038C108.009 73.3309 107.424 73.5755 106.81 73.586Z" fill="black"/>
<path d="M88.6637 197.619C67.2314 201.462 45.2704 201.462 23.8381 197.619C22.561 197.171 21.4659 196.327 20.7172 195.214C19.9685 194.101 19.6064 192.779 19.6853 191.446V47.7899C19.5416 46.5422 19.8935 45.2881 20.6675 44.29C21.4415 43.2919 22.5776 42.627 23.8381 42.4345H88.6222C89.8827 42.627 91.0187 43.2919 91.7927 44.29C92.5667 45.2881 92.9187 46.5422 92.775 47.7899V191.446C92.8635 192.775 92.5103 194.096 91.7685 195.21C91.0268 196.323 89.9369 197.169 88.6637 197.619Z" fill="#DCDCDC"/>
<path d="M94.3521 61.3214H18.1478C17.5382 61.3107 16.9573 61.0648 16.5301 60.6366C16.1029 60.2084 15.8636 59.6323 15.8637 59.0321V5.88668C15.804 5.2178 16.0078 4.55192 16.433 4.02686C16.8582 3.50179 17.4721 3.15774 18.1478 3.06589C43.4819 0.490488 69.018 0.490488 94.3521 3.06589C94.9839 3.14407 95.5662 3.44294 95.993 3.90812C96.4198 4.37329 96.6628 4.97385 96.6777 5.60052V58.7459C96.7124 59.0685 96.6783 59.3946 96.5776 59.7035C96.4769 60.0123 96.3118 60.2971 96.0929 60.5395C95.874 60.7819 95.6061 60.9767 95.3064 61.1114C95.0066 61.246 94.6816 61.3176 94.3521 61.3214Z" fill="#F5E0C4"/>
<path d="M88.6208 13.9816H23.9198C22.6354 13.9816 21.5942 15.0065 21.5942 16.2709V58.8281C21.5942 60.0925 22.6354 61.1175 23.9198 61.1175H88.6208C89.9052 61.1175 90.9464 60.0925 90.9464 58.8281V16.2709C90.9464 15.0065 89.9052 13.9816 88.6208 13.9816Z" fill="#FBFBFB"/>
<path d="M92.9506 5.59661L91.6221 11.556C91.4978 12.0638 91.1901 12.5158 90.7513 12.8352C90.3125 13.1546 89.7694 13.3219 89.2142 13.3087H23.204C22.6898 13.2769 22.2008 13.0885 21.8111 12.7722C21.4215 12.4558 21.1526 12.0288 21.0452 11.556L19.7582 5.71346C19.6854 5.39822 19.6868 5.07189 19.7621 4.75718C19.8374 4.44247 19.9849 4.14693 20.1943 3.89114C20.4037 3.63534 20.6701 3.42543 20.9747 3.27601C21.2794 3.12658 21.6151 3.04124 21.9585 3.02591H90.5427C90.891 3.01605 91.2373 3.07849 91.5569 3.20876C91.8766 3.33903 92.1616 3.53391 92.3916 3.7795C92.6216 4.02508 92.791 4.3153 92.8876 4.62942C92.9843 4.94353 93.0058 5.2738 92.9506 5.59661Z" fill="#F7F4ED"/>
<path d="M15.8645 11.6921L19.0622 14.5129C19.4471 14.8777 19.6709 15.377 19.6851 15.9028V54.4946C19.6851 54.9933 19.4838 55.4717 19.1256 55.8243C18.7673 56.177 18.2814 56.3751 17.7748 56.3751C17.5224 56.3807 17.2714 56.3359 17.0371 56.2434C16.8028 56.1508 16.5899 56.0125 16.4114 55.8368C16.2328 55.661 16.0923 55.4515 15.9983 55.2208C15.9043 54.9901 15.8588 54.7431 15.8645 54.4946V11.6921Z" fill="#F7F4ED"/>
<path d="M96.6785 11.6921L93.4808 14.5129C93.2824 14.6875 93.1242 14.9019 93.0168 15.1416C92.9094 15.3813 92.8552 15.6408 92.8579 15.9028V54.4946C92.8522 54.7431 92.8977 54.9901 92.9917 55.2208C93.0857 55.4515 93.2262 55.661 93.4048 55.8368C93.5833 56.0125 93.7962 56.1508 94.0305 56.2434C94.2648 56.3359 94.5158 56.3807 94.7682 56.3751C95.2748 56.3751 95.7607 56.177 96.119 55.8243C96.4772 55.4717 96.6785 54.9933 96.6785 54.4946V11.6921Z" fill="#F7F4ED"/>
<path d="M98.5466 71.4194V198.723C98.5073 200.038 98.0055 201.299 97.127 202.291C96.2484 203.282 95.0476 203.943 93.7293 204.16C89.5765 204.774 85.1745 205.223 80.8971 205.632C77.9071 205.918 74.9586 206.123 71.9686 206.286C64.8672 206.695 57.7659 206.818 50.623 206.654C47.6745 206.654 44.726 206.654 41.736 206.368C34.0394 205.959 26.3844 205.223 18.7709 204.16C17.456 203.936 16.2595 203.273 15.3824 202.283C14.5052 201.293 14.0007 200.036 13.9536 198.723V71.4194C13.9536 70.1508 14.4655 68.9343 15.3767 68.0372C16.2879 67.1402 17.5238 66.6363 18.8124 66.6363H93.5632C94.2132 66.6142 94.861 66.7219 95.4675 66.9529C96.0741 67.1838 96.6268 67.5333 97.0925 67.9803C97.5581 68.4272 97.927 68.9623 98.177 69.5534C98.4269 70.1445 98.5526 70.7792 98.5466 71.4194Z" fill="#F5E0C4"/>
<path d="M93.6877 66.6364H18.7708V204.16H93.6877V66.6364Z" fill="#FBFBFB"/>
<path d="M90.781 94.5579H29.693L25.7478 90.6333L29.693 77.4287L86.7943 73.5042L90.781 77.4287V94.5579Z" fill="#DCDCDC"/>
<path d="M86.7943 73.5042H25.7478V90.6333H86.7943V73.5042Z" fill="#F7F4ED"/>
<path d="M38.4133 65.7776H37.2505V73.5041H38.4133V65.7776Z" fill="#DCDCDC"/>
<path d="M41.1957 65.7776H40.033V73.5041H41.1957V65.7776Z" fill="#DCDCDC"/>
<path d="M75.0009 65.7776H73.8381V73.5041H75.0009V65.7776Z" fill="#DCDCDC"/>
<path d="M31.3951 79.1047H29.5679V86.9948H31.3951V79.1047Z" fill="#DCDCDC"/>
<path d="M35.2164 79.1047H33.3892V86.9948H35.2164V79.1047Z" fill="#DCDCDC"/>
<path d="M39.0372 79.1047H37.21V86.9948H39.0372V79.1047Z" fill="#DCDCDC"/>
<path d="M42.857 79.1047H41.0298V86.9948H42.857V79.1047Z" fill="#DCDCDC"/>
<path d="M82.9317 79.1047H81.1045V86.9948H82.9317V79.1047Z" fill="#DCDCDC"/>
<path d="M79.1119 79.1047H77.2847V86.9948H79.1119V79.1047Z" fill="#DCDCDC"/>
<path d="M75.3324 79.1047H73.5051V86.9948H75.3324V79.1047Z" fill="#DCDCDC"/>
<path d="M71.5118 79.1047H69.6846V86.9948H71.5118V79.1047Z" fill="#DCDCDC"/>
</svg>
