<svg width="78" height="132" viewBox="0 0 78 132" fill="none" xmlns="http://www.w3.org/2000/svg">
<g clip-path="url(#clip0)">
<path opacity="0.1" fill-rule="evenodd" clip-rule="evenodd" d="M57.0766 10.016C54.2727 9.37641 51.4355 8.93232 48.5854 8.68367C47.0106 8.41265 45.1414 8.25 43.1355 8.25C40.9853 8.25 39.0105 8.41878 37.3911 8.71026C34.6411 8.96333 31.9039 9.39848 29.1975 10.0157C28.5383 10.1052 27.8856 10.232 27.2426 10.3951H26.8831C25.6662 10.7421 24.5042 11.235 23.4202 11.8582C22.9942 12.0814 22.5767 12.3225 22.1687 12.5813C22.1319 12.6302 22.0963 12.6822 22.062 12.7367C20.9359 13.552 19.9189 14.5203 19.0431 15.6202C17.0406 18.1353 15.8774 21.2124 15.7166 24.4201C15.4457 29.5199 15.2198 34.6215 15.0387 39.7243C14.9975 40.7522 14.9585 41.7801 14.9215 42.8081C14.8992 42.8048 14.8768 42.8017 14.8544 42.7988C14.4087 42.742 13.9561 42.7764 13.5242 42.8998L10.5051 43.5598C9.66576 43.7657 8.94053 44.291 8.48452 45.0233C8.02851 45.7556 7.87794 46.6369 8.065 47.4786L8.27179 47.8086L14.8036 46.3162C14.3297 61.4534 14.3115 76.6011 14.7488 91.7389C14.9516 100.075 15.2742 108.409 15.7166 116.738C15.9306 120.508 17.4988 124.076 20.1341 126.788C22.7694 129.5 26.2957 131.174 30.0676 131.505H33.0453L33.0453 131.67H36.2362C40.8344 131.863 45.4387 131.863 50.0369 131.67H53.2277L53.2277 131.505H56.2055C59.9774 131.174 63.5036 129.5 66.139 126.788C68.7743 124.076 70.3425 120.508 70.5565 116.738C71.2283 104.3 71.6329 91.8516 71.7703 79.4009C71.8668 72.0583 71.8549 64.7147 71.7345 57.3724C71.5775 46.3842 71.2124 35.3981 70.6392 24.4201C70.4756 21.2072 69.3064 18.1262 67.296 15.6104C66.3867 14.4727 65.3262 13.4764 64.15 12.6454C64.1348 12.6235 64.1194 12.6021 64.1037 12.5813C63.9336 12.4734 63.7619 12.3686 63.5886 12.2669C62.3111 11.4459 60.9114 10.8127 59.4313 10.3951H59.0298C58.3873 10.2321 57.7353 10.1054 57.0766 10.016Z" fill="black"/>
<path d="M62.2839 108.487C62.0699 112.258 60.5017 115.826 57.8664 118.537C55.2311 121.249 51.7048 122.924 47.9329 123.255H44.9552C38.2341 123.667 31.4939 123.667 24.7728 123.255H21.7951C18.0232 122.924 14.4969 121.249 11.8616 118.537C9.22622 115.826 7.65806 112.258 7.44405 108.487C5.81064 77.7365 5.81064 46.9209 7.44405 16.1699C7.60488 12.9622 8.76809 9.88512 10.7706 7.36999C12.7731 4.85487 15.5145 3.0278 18.6105 2.14493L19.355 1.93868C29.5302 -0.659573 40.1977 -0.659573 50.373 1.93868L51.1588 2.14493C54.2625 3.02054 57.013 4.84446 59.0234 7.36021C61.0338 9.87596 62.203 12.957 62.3666 16.1699C63.9725 46.9223 63.9449 77.7379 62.2839 108.487Z" fill="#F5E0C4"/>
<path d="M62.3255 104.28C62.0758 108.024 60.4772 111.552 57.8246 114.213C55.1719 116.873 51.6441 118.488 47.8918 118.758H45.9066C45.5908 118.799 45.2711 118.799 44.9554 118.758C44.6535 118.718 44.3474 118.718 44.0455 118.758H42.7634C37.5012 119.047 32.2271 119.047 26.9649 118.758H25.7242C25.4083 118.719 25.0888 118.719 24.773 118.758C24.4572 118.799 24.1375 118.799 23.8218 118.758H21.7952C18.0393 118.478 14.5109 116.855 11.8591 114.188C9.20719 111.52 7.61011 107.987 7.36152 104.238C5.78941 76.39 5.7618 48.4762 7.27881 20.6247C7.42096 17.333 8.61877 14.1737 10.696 11.6118C12.7731 9.04989 15.62 7.22071 18.8175 6.39344H19.3552L23.8218 5.52719C24.4421 5.52719 25.0625 5.32094 25.7242 5.32094C26.1279 5.19503 26.5438 5.11207 26.9649 5.07344C32.2128 4.45469 37.5155 4.45469 42.7634 5.07344C43.1976 5.11609 43.6268 5.19895 44.0455 5.32094C44.6659 5.32094 45.2862 5.32094 45.9066 5.52719C47.3955 5.77469 48.8843 6.10469 50.3732 6.39344H50.9108C54.1148 7.20876 56.969 9.03462 59.0482 11.599C61.1274 14.1634 62.3205 17.3292 62.4495 20.6247C63.9733 48.4901 63.9318 76.4188 62.3255 104.28Z" fill="#F7F4ED"/>
<path d="M59.8072 100.969C59.0684 109.525 52.5123 116.473 43.9463 117.083C37.7501 117.524 31.5357 117.506 25.3409 117.029C17.1372 116.397 10.7099 109.94 9.78374 101.764C6.77429 75.1984 9.44945 49.2187 10.7955 22.8789C10.9526 19.1695 12.1149 15.613 14.1161 12.7188C16.1172 9.82458 18.8544 7.74107 21.9358 6.76662C30.5146 4.2329 39.5018 4.2329 48.0806 6.76662C51.1619 7.74107 53.8992 9.82458 55.9003 12.7188C57.9014 15.613 59.0637 19.1695 59.2209 22.8789C60.5552 48.989 62.0905 74.5263 59.8072 100.969Z" fill="#FBFBFB"/>
<path d="M58.19 100.32C42.6953 102.177 27.0335 102.177 11.5389 100.32C8.98184 78.2614 8.88475 55.9878 11.2494 33.9077C26.5406 28.5853 43.1883 28.5853 58.4795 33.9077C60.8647 55.9868 60.7676 78.2626 58.19 100.32Z" fill="#F7F4ED"/>
<path d="M53.4337 90.2963C50.9109 90.5438 48.4294 90.7088 45.9066 90.75C45.287 90.7908 44.6652 90.7908 44.0456 90.75C43.6192 90.7914 43.1898 90.7914 42.7635 90.75C37.5025 91.08 32.2259 91.08 26.965 90.75C26.5524 90.7914 26.1368 90.7914 25.7242 90.75C25.0908 90.7926 24.4552 90.7926 23.8218 90.75C21.3404 90.75 18.8176 90.5438 16.2948 90.2963C14.3301 77.0998 14.3301 63.6864 16.2948 50.49C18.838 49.8096 21.4208 49.2861 24.0286 48.9225C24.649 48.7566 25.2887 48.6734 25.931 48.675C26.3437 48.6374 26.759 48.6374 27.1718 48.675C32.4197 48.0562 37.7224 48.0562 42.9703 48.675C43.3969 48.6398 43.8257 48.6398 44.2523 48.675C44.8809 48.6761 45.5066 48.7593 46.1134 48.9225C48.7212 49.2861 51.304 49.8096 53.8473 50.49C55.6749 63.7067 55.5355 77.1202 53.4337 90.2963Z" fill="#FBFBFB"/>
<path d="M16.0461 50.4898L17.535 50.1598L13.3993 33.2473L11.3728 33.9073C11.3728 34.9798 11.166 36.0523 11.0833 37.1248L16.1289 51.0261C16.1289 51.0261 16.0461 50.6961 16.0461 50.4898Z" fill="#FBFBFB"/>
<path d="M14.7225 69.6301H9.59424C9.59424 70.9914 9.59424 72.3114 9.59424 73.7551L14.7225 72.4351C14.7225 71.4451 14.7225 70.5376 14.7225 69.6301Z" fill="#FBFBFB"/>
<path d="M53.7637 50.4898C53.7637 50.4898 53.7637 50.8611 53.7637 51.0261L58.8093 37.1248C58.8093 36.0523 58.6025 34.9798 58.4784 33.9073L56.4519 33.2473L52.3162 50.1598L53.7637 50.4898Z" fill="#FBFBFB"/>
<path d="M53.4327 90.3376H52.1506L54.5494 100.609L58.1888 100.238C58.1888 98.7939 58.4783 97.3914 58.6437 96.1126L53.7636 88.2751C53.7636 88.9764 53.7636 89.6364 53.4327 90.3376Z" fill="#FBFBFB"/>
<path d="M16.2943 90.3376C16.2943 89.6364 16.2943 88.9764 16.0048 88.2751L11.0833 96.0302C11.0833 97.4739 11.3728 98.8764 11.5382 100.155L15.1776 100.526L17.5764 90.2551L16.2943 90.3376Z" fill="#FBFBFB"/>
<path d="M55.0046 69.63C55.0046 70.5375 55.0046 71.445 55.0046 72.3525L60.1329 73.6725C60.1329 72.3112 60.1329 70.9912 60.1329 69.5475L55.0046 69.63Z" fill="#FBFBFB"/>
<path d="M43.7967 61.875H25.7649V71.1562L32.3407 73.9613H46.4022V69.96L43.7967 61.875Z" fill="#DCDCDC"/>
<path d="M25.7649 71.1562L27.75 69.3825V65.3813L25.7649 61.875V71.1562Z" fill="#F5E0C4"/>
<path d="M27.75 65.3813H41.8529L43.7967 61.875H25.7649L27.75 65.3813Z" fill="#F7F4ED"/>
<path d="M41.8535 65.3813L43.7973 61.875V71.1562L41.8535 69.3825V65.3813Z" fill="#F5E0C4"/>
<path d="M43.7967 71.1561L41.8529 69.3823H27.75L25.7649 71.1561H43.7967Z" fill="#F7F4ED"/>
<path d="M41.8122 65.3812H27.7507V69.3825H41.8122V65.3812Z" fill="#FBFBFB"/>
</g>
<defs>
<clipPath id="clip0">
<path d="M0 0H78V132H0V0Z" fill="white"/>
</clipPath>
</defs>
</svg>
