<svg width="75" height="132" viewBox="0 0 75 132" fill="none" xmlns="http://www.w3.org/2000/svg">
<g clip-path="url(#clip0)">
<path opacity="0.1" fill-rule="evenodd" clip-rule="evenodd" d="M51.1798 131.659C56.4408 131.369 61.6837 130.794 66.8871 129.937C68.1471 112.841 68.8801 95.7137 69.0858 78.5802C69.1885 71.3921 69.182 64.2027 69.0663 57.0145C68.8683 42.6758 68.3009 28.3409 67.3643 14.0249C63.8595 12.4588 60.2432 11.1762 56.5478 10.1887C56.1057 10.0713 55.6628 9.95921 55.2189 9.85243C55.0248 9.75128 54.8158 9.6836 54.6 9.65245C53.9109 9.51472 53.2204 9.38793 52.5286 9.27209C45.996 8.02377 39.3134 7.90783 32.753 8.92426C31.2814 9.11782 29.8143 9.36055 28.354 9.65245C28.0833 9.69152 27.8232 9.78805 27.5901 9.93603C27.5662 9.95123 27.5426 9.96694 27.5193 9.98314C27.2535 10.0497 26.9879 10.1183 26.7227 10.1887C23.0273 11.1762 19.411 12.4588 15.9062 14.0249C15.7516 16.2472 15.6059 18.4699 15.4692 20.6931V19.5111H14.1966V23.3474H15.3101C14.9308 29.8502 14.6277 36.3566 14.4006 42.8651C14.3484 42.8554 14.2959 42.8471 14.2431 42.8401C13.8146 42.7833 13.3794 42.8177 12.964 42.9411L10.0611 43.6011C9.25401 43.8069 8.55667 44.3322 8.1182 45.0646C7.67973 45.7969 7.53495 46.6782 7.71482 47.5198L7.95342 47.8086L14.288 46.2967C13.5382 70.6693 13.8559 95.0684 15.2412 119.419H14.1966V123.255H15.4683C15.6053 125.483 15.7513 127.71 15.9062 129.937C21.0964 130.797 26.3262 131.375 31.5743 131.67C38.0369 132.082 44.5178 132.082 50.9804 131.67L50.9814 131.67H51.1798V131.659Z" fill="black"/>
<path d="M58.934 121.687C53.6649 122.555 48.3553 123.133 43.0273 123.42C36.5647 123.832 30.0838 123.832 23.6212 123.42C18.3731 123.125 13.1433 122.546 7.95312 121.687C5.26888 83.1001 5.26888 44.3623 7.95312 5.77493C11.4063 4.21678 14.9692 2.9343 18.6106 1.93868C28.3945 -0.659573 38.6517 -0.659573 48.4356 1.93868C52.1311 2.92624 55.7474 4.20881 59.2522 5.77493C61.8305 44.3702 61.7242 83.108 58.934 121.687Z" fill="#F5E0C4"/>
<path d="M58.8941 117.398C54.0028 118.099 49.0319 118.553 44.1406 118.883C43.837 118.923 43.5296 118.923 43.226 118.883C42.9357 118.842 42.6414 118.842 42.3511 118.883H41.1184C36.0586 119.171 30.9873 119.171 25.9275 118.883H24.7345C24.4308 118.843 24.1236 118.843 23.8199 118.883C23.5162 118.923 23.2088 118.923 22.9052 118.883C18.0139 118.553 13.0431 118.099 8.07224 117.398C5.34837 81.5811 5.30848 45.5993 7.95294 9.7764C11.4747 8.346 15.0892 7.17436 18.7695 6.27015L23.0643 5.4039C23.6608 5.4039 24.2573 5.19765 24.8936 5.19765C25.2817 5.07174 25.6816 4.98878 26.0866 4.95015C31.1326 4.3314 36.2314 4.3314 41.2774 4.95015C41.6949 4.9928 42.1076 5.07565 42.5102 5.19765C43.1067 5.19765 43.7032 5.19765 44.2997 5.4039C45.7313 5.6514 47.1629 5.9814 48.5945 6.27015C52.2764 7.16844 55.8912 8.34021 59.411 9.7764C61.9628 45.6086 61.7899 81.5936 58.8941 117.398Z" fill="#FBFBFB"/>
<path d="M55.952 99.8661C41.0949 102.341 25.9523 102.341 11.0952 99.8661C8.63647 69.9217 8.54337 39.8188 10.8168 9.85864C17.9266 6.41621 25.6774 4.6322 33.5236 4.6322C41.3698 4.6322 49.1206 6.41621 56.2304 9.85864C58.5238 39.818 58.4306 69.9226 55.952 99.8661Z" fill="#FBFBFB"/>
<path d="M24.7343 5.19751V119.048C24.4306 119.008 24.1234 119.008 23.8197 119.048C23.516 119.088 23.2087 119.088 22.905 119.048V5.40376C23.5015 5.36251 24.098 5.19751 24.7343 5.19751Z" fill="#FBFBFB"/>
<path d="M55.5166 99.6086C40.8191 101.433 25.9631 101.433 11.2657 99.6086C8.8402 77.929 8.7481 56.0384 10.9911 34.3379C25.4955 29.107 41.2867 29.107 55.7912 34.3379C58.0537 56.0374 57.9616 77.9302 55.5166 99.6086Z" fill="#F7F4ED"/>
<path d="M24.7343 48.6748V90.7498C24.1252 90.7924 23.5141 90.7924 22.905 90.7498V48.9223C23.5016 48.7565 24.1167 48.6732 24.7343 48.6748Z" fill="#FBFBFB"/>
<path d="M44.1416 48.9223V90.7498C43.5457 90.7906 42.9479 90.7906 42.3521 90.7498V48.6748C42.9564 48.6759 43.558 48.7591 44.1416 48.9223Z" fill="#FBFBFB"/>
<mask id="mask0" mask-type="alpha" maskUnits="userSpaceOnUse" x="9" y="30" width="49" height="71">
<path d="M55.5166 99.6086C40.8191 101.433 25.9631 101.433 11.2657 99.6086C8.8402 77.929 8.7481 56.0384 10.9911 34.3379C25.4955 29.107 41.2867 29.107 55.7912 34.3379C58.0537 56.0374 57.9616 77.9302 55.5166 99.6086Z" fill="#F7F4ED"/>
</mask>
<g mask="url(#mask0)">
<path d="M51.3795 90.2963C48.9537 90.5438 46.5677 90.7088 44.142 90.75C43.5461 90.7908 42.9483 90.7908 42.3525 90.75C41.9425 90.7914 41.5296 90.7914 41.1197 90.75C36.0611 91.08 30.9874 91.08 25.9288 90.75C25.5321 90.7914 25.1325 90.7914 24.7358 90.75C24.1267 90.7926 23.5156 90.7926 22.9065 90.75C20.5205 90.75 18.0948 90.5438 15.669 90.2963C13.7799 77.0998 13.7799 63.6864 15.669 50.49C18.1144 49.8096 20.5979 49.2861 23.1054 48.9225C23.7019 48.7566 24.317 48.6734 24.9346 48.675C25.3315 48.6374 25.7308 48.6374 26.1276 48.675C31.1737 48.0562 36.2725 48.0562 41.3185 48.675C41.7287 48.6398 42.1411 48.6398 42.5513 48.675C43.1557 48.6761 43.7573 48.7593 44.3408 48.9225C46.8483 49.2861 49.3318 49.8096 51.7772 50.49C53.5345 63.7067 53.4005 77.1202 51.3795 90.2963Z" fill="#FBFBFB"/>
<path d="M14.7329 50.4897L16.1645 50.1597L12.1879 33.2473L10.2393 33.9073C10.2393 34.9798 10.0405 36.0523 9.96094 37.1248L14.8125 51.026C14.8125 51.026 14.7329 50.696 14.7329 50.4897Z" fill="#FBFBFB"/>
<path d="M15.2344 69.3456H9.375C9.375 70.7507 9.375 72.1133 9.375 73.6037L15.2344 72.2411C15.2344 71.2191 15.2344 70.2824 15.2344 69.3456Z" fill="#FBFBFB"/>
<path d="M51.697 50.4897C51.697 50.4897 51.697 50.861 51.697 51.026L56.5486 37.1248C56.5486 36.0523 56.3497 34.9798 56.2304 33.9073L54.2818 33.2473L50.3052 50.1597L51.697 50.4897Z" fill="#FBFBFB"/>
<path d="M51.3778 90.3376H50.145L52.4515 100.609L55.951 100.238C55.951 98.7938 56.2293 97.3913 56.3884 96.1126L51.6959 88.2751C51.6959 88.9763 51.6959 89.6363 51.3778 90.3376Z" fill="#FBFBFB"/>
<path d="M15.6681 90.3376C15.6681 89.6363 15.6681 88.9763 15.3897 88.2751L10.6575 96.0301C10.6575 97.4738 10.9358 98.8763 11.0949 100.155L14.5944 100.526L16.9008 90.2551L15.6681 90.3376Z" fill="#FBFBFB"/>
<path d="M52.8896 69.6299C52.8896 70.5374 52.8896 71.4449 52.8896 72.3524L57.8207 73.6724C57.8207 72.3112 57.8207 70.9912 57.8207 69.5474L52.8896 69.6299Z" fill="#FBFBFB"/>
</g>
</g>
<defs>
<clipPath id="clip0">
<path d="M0 0H75V132H0V0Z" fill="white"/>
</clipPath>
</defs>
</svg>
