<svg width="119" height="228" viewBox="0 0 119 228" fill="none" xmlns="http://www.w3.org/2000/svg">
<g clip-path="url(#clip0)">
<path opacity="0.1" fill-rule="evenodd" clip-rule="evenodd" d="M101.876 71.8346H100.345V81.0446C100.663 81.1181 100.98 81.1926 101.297 81.268C102.619 81.6453 103.786 82.4248 104.633 83.4954C105.48 84.566 105.962 85.873 106.013 87.2304V214.401C105.932 215.823 105.452 217.195 104.627 218.363C103.801 219.532 102.663 220.45 101.339 221.016C97.1642 222.588 92.9123 223.951 88.5991 225.1C85.621 225.835 82.6843 226.407 79.7062 226.856C72.6289 228.018 65.4416 228.388 58.2804 227.959C55.3023 227.959 52.3242 227.51 49.3461 227.061C41.5434 225.896 33.8892 223.911 26.5139 221.139C25.1668 220.566 24.0102 219.63 23.1764 218.438C22.3426 217.247 21.8651 215.848 21.7986 214.401V87.2304C21.8579 85.8696 22.3491 84.5616 23.2028 83.4916C24.0564 82.4215 25.2292 81.6437 26.5553 81.268C26.8719 81.1927 27.1887 81.1184 27.5056 81.0451V71.8346H25.9761C25.6647 71.8295 25.3575 71.7625 25.0729 71.6375C24.7883 71.5126 24.5322 71.3323 24.3198 71.1073C24.1074 70.8824 23.9432 70.6175 23.8369 70.3284C23.7306 70.0394 23.6844 69.7322 23.7011 69.4251V65.3536L23.7011 65.3412V22.4611L23.7011 22.4611V20.0924H19.1511V18.4589H23.7011V16.3354C23.7072 15.7176 23.9419 15.1233 24.3609 14.6645C24.7799 14.2057 25.3543 13.9139 25.9761 13.8442C51.2069 11.2306 76.6455 11.2306 101.876 13.8442C102.502 13.9131 103.081 14.2033 103.507 14.6613C103.933 15.1192 104.176 15.7139 104.193 16.3354V69.4251C104.209 69.7356 104.162 70.0462 104.053 70.3379C103.944 70.6297 103.776 70.8965 103.56 71.122C103.343 71.3475 103.082 71.527 102.792 71.6495C102.503 71.772 102.191 71.835 101.876 71.8346ZM19.1511 199.903H21.7983V205.375H19.1511V199.903ZM21.7983 95.6433H19.1511V101.116H21.7983V95.6433Z" fill="black"/>
<path d="M87.9362 200.108C66.5932 203.987 44.7122 203.987 23.3693 200.108C22.0928 199.679 20.9954 198.846 20.2475 197.738C19.4995 196.631 19.1429 195.31 19.233 193.982V50.3945C19.0792 49.1462 19.4257 47.888 20.1985 46.8885C20.9713 45.889 22.1092 45.2273 23.3693 45.0447H87.9362C89.1963 45.2273 90.3342 45.889 91.107 46.8885C91.8798 47.888 92.2262 49.1462 92.0724 50.3945V193.9C92.1815 195.242 91.8338 196.581 91.0845 197.706C90.3352 198.83 89.2272 199.675 87.9362 200.108Z" fill="#F5E0C4"/>
<path d="M93.6033 63.667H17.7031C17.3917 63.6619 17.0845 63.5949 16.7999 63.47C16.5153 63.345 16.2592 63.1647 16.0468 62.9397C15.8344 62.7148 15.6702 62.4499 15.5639 62.1608C15.4576 61.8718 15.4114 61.5646 15.4281 61.2575V8.16776C15.4342 7.55 15.6689 6.95575 16.0879 6.49692C16.5069 6.03809 17.0814 5.74635 17.7031 5.67663C42.9339 3.06303 68.3725 3.06303 93.6033 5.67663C94.2291 5.7455 94.8084 6.03574 95.2342 6.49368C95.6601 6.95163 95.9035 7.54631 95.9196 8.16776V61.2575C95.9365 61.568 95.8891 61.8786 95.7803 62.1703C95.6714 62.4621 95.5035 62.7289 95.2867 62.9544C95.0699 63.1799 94.8088 63.3594 94.5194 63.4819C94.2299 63.6044 93.9182 63.6674 93.6033 63.667Z" fill="#F5E0C4"/>
<path d="M88.0057 18.649H23.6715C22.3944 18.649 21.3591 19.5255 21.3591 20.6067V56.9975C21.3591 58.0787 22.3944 58.9551 23.6715 58.9551H88.0057C89.2828 58.9551 90.3181 58.0787 90.3181 56.9975V20.6067C90.3181 19.5255 89.2828 18.649 88.0057 18.649Z" fill="#FBFBFB"/>
<path d="M91.9076 8.65783L90.6667 14.7427C90.5512 15.2828 90.2483 15.766 89.8102 16.109C89.3722 16.452 88.8266 16.6332 88.2677 16.6213H22.4599C21.903 16.6255 21.3613 16.4414 20.9249 16.0997C20.4885 15.758 20.1836 15.2792 20.0609 14.7427L18.82 8.65783C18.7651 8.31937 18.7865 7.9731 18.8827 7.64375C18.979 7.3144 19.1478 7.01012 19.377 6.75263C19.6061 6.49514 19.8901 6.2908 20.2085 6.15421C20.527 6.01763 20.872 5.95217 21.2191 5.96251H89.5499C89.8957 5.95088 90.2397 6.01588 90.5567 6.15273C90.8737 6.28958 91.1557 6.49481 91.3818 6.75333C91.6079 7.01186 91.7726 7.31712 91.8635 7.64669C91.9545 7.97626 91.9696 8.32176 91.9076 8.65783Z" fill="#F7F4ED"/>
<path d="M15.4299 14.2933L18.5735 17.152C18.7808 17.3209 18.9476 17.5329 19.0621 17.773C19.1765 18.0131 19.2356 18.2752 19.2353 18.5405V57.1735C19.2247 57.6685 19.0209 58.1402 18.6663 58.4903C18.3118 58.8404 17.8339 59.0416 17.3326 59.0521C16.828 59.0521 16.344 58.8541 15.9872 58.5018C15.6304 58.1495 15.4299 57.6717 15.4299 57.1735V14.2933Z" fill="#F7F4ED"/>
<path d="M95.9202 14.2933L92.7353 17.152C92.528 17.3209 92.3611 17.5329 92.2467 17.773C92.1323 18.0131 92.0731 18.2752 92.0735 18.5405V57.1735C92.084 57.6685 92.2879 58.1402 92.6425 58.4903C92.997 58.8404 93.4749 59.0416 93.9762 59.0521C94.4847 59.0522 94.973 58.8556 95.3364 58.5044C95.6998 58.1532 95.9094 57.6754 95.9202 57.1735V14.2933Z" fill="#F7F4ED"/>
<path d="M97.7397 79.0628V206.233C97.659 207.656 97.1791 209.028 96.3536 210.196C95.5282 211.364 94.3898 212.283 93.0658 212.849C88.8912 214.42 84.6393 215.783 80.3261 216.933C77.348 217.668 74.4113 218.24 71.4332 218.689C64.3559 219.851 57.1686 220.22 50.0074 219.792C47.0293 219.792 44.0512 219.342 41.0731 218.893C33.2704 217.728 25.6162 215.743 18.241 212.972C16.8938 212.398 15.7373 211.462 14.9034 210.271C14.0696 209.079 13.5921 207.68 13.5256 206.233V79.0628C13.5849 77.702 14.0761 76.394 14.9298 75.324C15.7834 74.254 16.9563 73.4761 18.2823 73.1004C42.8452 67.2601 68.4615 67.2601 93.0244 73.1004C94.346 73.4778 95.5132 74.2573 96.3599 75.3278C97.2065 76.3984 97.6894 77.7055 97.7397 79.0628Z" fill="#F7F4ED"/>
<path d="M80.9058 79.0627V206.233C80.9353 207.469 80.6999 208.697 80.2152 209.838C79.7305 210.978 79.0074 212.004 78.0932 212.849C75.6428 214.386 73.0858 215.751 70.4411 216.933C68.7084 217.646 66.925 218.233 65.1054 218.689C60.9384 219.843 56.5893 220.217 52.283 219.791C50.4691 219.635 48.6709 219.334 46.9058 218.893C42.0019 217.624 37.3371 215.583 33.0907 212.849C32.1765 212.004 31.4534 210.978 30.9687 209.838C30.484 208.697 30.2487 207.469 30.2781 206.233V79.0627C30.1998 77.9154 30.4166 76.7671 30.9083 75.7246C31.4001 74.6822 32.1508 73.7795 33.0907 73.1003C47.4372 67.2621 63.5399 67.2621 77.8864 73.1003C78.8644 73.756 79.6555 74.6485 80.1842 75.6925C80.7129 76.7364 80.9614 77.8969 80.9058 79.0627Z" fill="#FBFBFB"/>
<path d="M57.9074 48.3523C57.9073 48.8306 57.7631 49.298 57.4931 49.6951C57.223 50.0921 56.8394 50.4009 56.3911 50.582C55.9428 50.7631 55.45 50.8084 54.9755 50.712C54.501 50.6157 54.0663 50.3822 53.7267 50.0411C53.3871 49.7 53.158 49.2669 53.0686 48.7968C52.9791 48.3268 53.0334 47.8411 53.2245 47.4016C53.4155 46.9621 53.7347 46.5887 54.1415 46.3289C54.5482 46.0691 55.024 45.9347 55.5084 45.9429C55.8269 45.9428 56.1423 46.0054 56.4361 46.127C56.7299 46.2486 56.9962 46.4267 57.2195 46.651C57.4428 46.8753 57.6187 47.1412 57.7368 47.4333C57.8549 47.7254 57.9129 48.0378 57.9074 48.3523Z" fill="#F5E0C4"/>
<path d="M66.5943 48.3523C66.5836 48.9881 66.3231 49.5948 65.8677 50.0444C65.4124 50.494 64.7978 50.7513 64.1539 50.7618C63.5067 50.7618 62.8859 50.5079 62.4283 50.0561C61.9706 49.6042 61.7135 48.9913 61.7135 48.3523C61.7079 48.0344 61.7672 47.7186 61.8879 47.4238C62.0085 47.1289 62.1881 46.8611 62.4158 46.6363C62.6435 46.4114 62.9148 46.2341 63.2134 46.115C63.512 45.9959 63.8319 45.9373 64.1539 45.9429C64.8011 45.9429 65.4219 46.1967 65.8795 46.6486C66.3372 47.1004 66.5943 47.7133 66.5943 48.3523Z" fill="#F5E0C4"/>
<path d="M46.5752 50.762C47.9229 50.762 49.0155 49.6833 49.0155 48.3526C49.0155 47.0219 47.9229 45.9431 46.5752 45.9431C45.2274 45.9431 44.1348 47.0219 44.1348 48.3526C44.1348 49.6833 45.2274 50.762 46.5752 50.762Z" fill="#F5E0C4"/>
<path d="M75.6119 144.281C75.6201 148.243 74.4373 152.117 72.2134 155.414C69.9896 158.711 66.8246 161.282 63.1195 162.802C59.4144 164.322 55.3358 164.721 51.4004 163.95C47.465 163.18 43.8499 161.273 41.0129 158.472C38.176 155.671 36.2448 152.102 35.4641 148.216C34.6834 144.331 35.0882 140.304 36.6274 136.646C38.1665 132.987 40.7707 129.863 44.11 127.667C47.4493 125.471 51.3736 124.303 55.3856 124.311C60.75 124.311 65.8946 126.415 69.6878 130.16C73.4809 133.906 75.6119 138.985 75.6119 144.281Z" fill="#F7F4ED"/>
<path d="M55.3854 158.412C63.2894 158.412 69.6969 152.085 69.6969 144.282C69.6969 136.478 63.2894 130.152 55.3854 130.152C47.4814 130.152 41.074 136.478 41.074 144.282C41.074 152.085 47.4814 158.412 55.3854 158.412Z" fill="#F5E0C4"/>
</g>
<defs>
<clipPath id="clip0">
<path d="M0 0H119V228H0V0Z" fill="white"/>
</clipPath>
</defs>
</svg>
