<svg width="30" height="30" viewBox="0 0 30 30" fill="none" xmlns="http://www.w3.org/2000/svg">
<circle cx="15" cy="15" r="15" fill="#F2C94C"/>
<path d="M14.5515 7.57497C14.7349 7.20339 15.2648 7.20339 15.4482 7.57497L17.4586 11.6479C17.5314 11.7953 17.672 11.8975 17.8347 11.9213L22.3313 12.5785C22.7412 12.6385 22.9046 13.1424 22.6078 13.4315L19.3549 16.5998C19.237 16.7147 19.1831 16.8803 19.211 17.0425L19.9786 21.518C20.0486 21.9265 19.6198 22.2379 19.253 22.045L15.2326 19.9307C15.0869 19.8541 14.9128 19.8541 14.7671 19.9307L10.7467 22.045C10.3798 22.2379 9.95106 21.9265 10.0211 21.518L10.7887 17.0425C10.8165 16.8803 10.7627 16.7147 10.6448 16.5998L7.39184 13.4315C7.09505 13.1424 7.25844 12.6385 7.6684 12.5785L12.165 11.9213C12.3277 11.8975 12.4683 11.7953 12.5411 11.6479L14.5515 7.57497Z" fill="#F2994A"/>
</svg>
