<svg width="143" height="46" viewBox="0 0 143 46" fill="none" xmlns="http://www.w3.org/2000/svg">
<rect width="45.4496" height="45.4496" rx="4" fill="#29166B"/>
<path opacity="0.5" d="M48.7754 4C48.7754 1.79086 50.5663 0 52.7754 0H90.225C92.4341 0 94.225 1.79086 94.225 4V20.062C94.225 20.6143 93.7773 21.062 93.225 21.062H49.7754C49.2231 21.062 48.7754 20.6143 48.7754 20.062V4Z" fill="#29166B"/>
<path opacity="0.5" d="M48.7754 25.3876C48.7754 24.8353 49.2231 24.3876 49.7754 24.3876H93.225C93.7773 24.3876 94.225 24.8353 94.225 25.3876V41.4496C94.225 43.6587 92.4341 45.4496 90.225 45.4496H52.7754C50.5663 45.4496 48.7754 43.6587 48.7754 41.4496V25.3876Z" fill="#29166B"/>
<rect x="97.5503" width="45.4496" height="45.4496" rx="4" fill="#29166B"/>
<path d="M19.9536 22.1706L24.942 19.2905L24.942 25.0506L19.9536 22.1706Z" fill="#F8F5EE"/>
<path d="M123.046 22.1706L118.058 25.0506L118.058 19.2905L123.046 22.1706Z" fill="#F8F5EE"/>
<path d="M72.0541 7.7597L74.9341 12.7481H69.1741L72.0541 7.7597Z" fill="#F8F5EE"/>
<path d="M72.0543 37.6899L69.1743 32.7015L74.9343 32.7015L72.0543 37.6899Z" fill="#F8F5EE"/>
</svg>
